<?xml version="1.0" encoding="utf-8"?>
<svg viewBox="135.5691 142.6932 16.017 13.236" xmlns="http://www.w3.org/2000/svg">
  <g transform="matrix(0.9999999999999999, 0, 0, 0.9999999999999999, 24.61908721923828, 56.05015563964844)">
    <path d="M 124.108 86.808 C 124.288 86.588 124.579 86.588 124.759 86.808 L 126.832 89.345 C 127.012 89.564 127.012 89.921 126.832 90.141 L 124.759 92.677 C 124.579 92.898 124.288 92.898 124.108 92.677 C 123.928 92.458 123.928 92.1 124.108 91.88 L 125.355 90.306 L 120.978 90.306 C 120.725 90.306 120.518 90.054 120.518 89.743 C 120.518 89.431 120.725 89.179 120.978 89.179 L 125.355 89.179 L 124.108 87.605 C 123.928 87.385 123.928 87.028 124.108 86.808 Z" style=""/>
    <path d="M 117.45 88.879 C 117.15 88.879 117.05 89.079 116.85 89.279 L 111.05 98.779 C 110.95 98.879 110.95 99.079 110.95 99.179 C 110.95 99.679 111.35 99.879 111.65 99.879 L 123.25 99.879 C 123.65 99.879 123.95 99.679 123.95 99.179 C 123.95 98.979 123.95 98.979 123.85 98.779 L 118.15 89.279 C 117.95 89.079 117.75 88.879 117.45 88.879 Z M 117.45 90.379 L 120.75 95.879 L 119.95 95.879 L 118.45 94.379 L 117.45 95.879 L 116.45 94.379 L 114.95 95.879 L 114.05 95.879 L 117.45 90.379 Z"/>
  </g>
</svg>