<!-- <?xml version="1.0" encoding="utf-8"?> -->
<svg viewBox="107.2862 210.2745 15.937 13.2047" xmlns="http://www.w3.org/2000/svg">
  <g transform="matrix(0.9999999999999999, 0, 0, 0.9999999999999999, 184.21624755859375, 8.568197250366218)">
    <path d="M -67.493 203.911 C -67.793 203.911 -67.893 204.111 -68.093 204.311 L -73.893 213.811 C -73.993 213.911 -73.993 214.111 -73.993 214.211 C -73.993 214.711 -73.593 214.911 -73.293 214.911 L -61.693 214.911 C -61.293 214.911 -60.993 214.711 -60.993 214.211 C -60.993 214.011 -60.993 214.011 -61.093 213.811 L -66.793 204.311 C -66.993 204.111 -67.193 203.911 -67.493 203.911 Z M -67.493 205.411 L -64.193 210.911 L -64.993 210.911 L -66.493 209.411 L -67.493 210.911 L -68.493 209.411 L -69.993 210.911 L -70.893 210.911 L -67.493 205.411 Z"/>
    <path d="M -73.339 201.871 C -73.159 201.651 -72.868 201.651 -72.688 201.871 L -70.615 204.408 C -70.435 204.627 -70.435 204.984 -70.615 205.204 L -72.688 207.74 C -72.868 207.961 -73.159 207.961 -73.339 207.74 C -73.519 207.521 -73.519 207.163 -73.339 206.943 L -72.092 205.369 L -76.469 205.369 C -76.722 205.369 -76.929 205.117 -76.929 204.806 C -76.929 204.494 -76.722 204.242 -76.469 204.242 L -72.092 204.242 L -73.339 202.668 C -73.519 202.448 -73.519 202.091 -73.339 201.871 Z" style="transform-origin: -73.705px 204.806px;" transform="matrix(-1, 0, 0, -1, 0.000007, 0.000001)"/>
  </g>
</svg>