<svg viewBox="110 88 14 12" xmlns="http://www.w3.org/2000/svg" width="100" height="100" style="display: block; margin: auto;">
  <path d="M 117.45 88.879 C 117.15 88.879 117.05 89.079 116.85 89.279 L 111.05 98.779 C 110.95 98.879 110.95 99.079 110.95 99.179 C 110.95 99.679 111.35 99.879 111.65 99.879 L 123.25 99.879 C 123.65 99.879 123.95 99.679 123.95 99.179 C 123.95 98.979 123.95 98.979 123.85 98.779 L 118.15 89.279 C 117.95 89.079 117.75 88.879 117.45 88.879 Z M 117.45 90.379 L 120.75 95.879 L 119.95 95.879 L 118.45 94.379 L 117.45 95.879 L 116.45 94.379 L 114.95 95.879 L 114.05 95.879 L 117.45 90.379 Z"/>
  <style>
      path { fill: #16181D; }
      @media (prefers-color-scheme: dark) {
          path { fill: #E7E8ED; }
      }
  </style>
</svg>
